# xmcd
# Copyright (C) 1995-1998 Ti Kan
#
# Track frame offsets:
#       150
#       20700
#       39670
#       59857
#       80232
#       107677
#       121837
#       141082
#       167162
#       188152
#
# Disc length: 2743 seconds
#
# Revision: 1
# Processed by: cddbd v1.5.2PL0 Copyright (c) Steve Scherf et al.
# Submitted via: CD-Import v1.0
#
DISCID=910ab50a
DTITLE=Bright Eyes - I'm Wide Awake, It's Morning
DYEAR=2005
DGENRE=
TTITLE0=At The Bottom Of Everything
TTITLE1=We Are Nowhere And It's Now
TTITLE2=Old Soul Song (For The New World Order)
TTITLE3=Lua
TTITLE4=Train Under Water
TTITLE5=First Day Of My Life
TTITLE6=Another Travelin' Song
TTITLE7=Land Locked Blues
TTITLE8=Poison Oak
TTITLE9=Road To Joy
EXTD=
EXTT0=
EXTT1=
EXTT2=
EXTT3=
EXTT4=
EXTT5=
EXTT6=
EXTT7=
EXTT8=
EXTT9=
PLAYORDER=
